# xmcd CD database file
#
# Track frame offsets:
#	150
#	19827
#	38720
#	58375
#
# Disc length: 1030 seconds
#
# Revision: 0
# Processed by: cddbd v1.5.1PL0 Copyright (c) Steve Scherf et al.
# Submitted via: CDex 1.51
#
DISCID=30040404
DTITLE=サヨコ - 上を向いて歩こう
DYEAR=1995
DGENRE=JPop
TTITLE0=上を向いて歩こう
TTITLE1=夢の旅人
TTITLE2=SUKIYAKI(englishi)
TTITLE3=夢の旅人(karaoke)
EXTD=YEAR: 1995
EXTT0=
EXTT1=
EXTT2=
EXTT3=
PLAYORDER=
